<svg width="50" height="40" viewBox="0 0 50 40" fill="none" xmlns="http://www.w3.org/2000/svg">
<path d="M21.7893 39.961L17.0241 38.5781C16.5241 38.4375 16.2429 37.914 16.3835 37.414L27.0467 0.676834C27.1873 0.176797 27.7107 -0.104475 28.2107 0.036161L32.9759 1.41908C33.4759 1.55971 33.7571 2.08319 33.6165 2.58323L22.9533 39.3204C22.8049 39.8204 22.2893 40.1095 21.7893 39.961ZM12.8838 31.1948L16.2819 27.5695C16.6413 27.1866 16.6178 26.5772 16.2194 26.2256L9.14186 19.9986L16.2194 13.7716C16.6178 13.42 16.6491 12.8106 16.2819 12.4277L12.8838 8.80245C12.5322 8.42742 11.9385 8.40398 11.5557 8.76338L0.298805 19.311C-0.0996016 19.6783 -0.0996016 20.3111 0.298805 20.6783L11.5557 31.2338C11.9385 31.5932 12.5322 31.5776 12.8838 31.1948ZM38.4443 31.2416L49.7012 20.6862C50.0996 20.3189 50.0996 19.6861 49.7012 19.3189L38.4443 8.75557C38.0693 8.40398 37.4756 8.4196 37.1162 8.79463L33.7181 12.4199C33.3587 12.8027 33.3822 13.4122 33.7806 13.7638L40.8581 19.9986L33.7806 26.2256C33.3822 26.5772 33.3509 27.1866 33.7181 27.5695L37.1162 31.1948C37.4678 31.5776 38.0615 31.5932 38.4443 31.2416Z" fill="#C9151B"/>
</svg>
