<svg width="50" height="40" viewBox="0 0 50 40" fill="none" xmlns="http://www.w3.org/2000/svg">
<path d="M45.8333 0H4.16667C1.86632 0 0 1.67969 0 3.75V28.75C0 30.8203 1.86632 32.5 4.16667 32.5H20.8333L19.4444 36.25H13.1944C12.0399 36.25 11.1111 37.0859 11.1111 38.125C11.1111 39.1641 12.0399 40 13.1944 40H36.8056C37.9601 40 38.8889 39.1641 38.8889 38.125C38.8889 37.0859 37.9601 36.25 36.8056 36.25H30.5556L29.1667 32.5H45.8333C48.1337 32.5 50 30.8203 50 28.75V3.75C50 1.67969 48.1337 0 45.8333 0ZM44.4444 27.5H5.55556V5H44.4444V27.5Z" fill="#C9151B"/>
</svg>
