<svg width="35" height="40" viewBox="0 0 35 40" fill="none" xmlns="http://www.w3.org/2000/svg">
<path d="M25.4778 24.445C26.3864 23.9216 27.6474 23.4684 27.6474 23.4684C27.6474 23.4684 24.0592 24.0153 20.4895 24.2653C16.1224 24.57 11.4308 24.6325 9.07575 24.3669C3.50333 23.7419 12.1355 22.0153 12.1355 22.0153C12.1355 22.0153 8.78832 21.8278 4.66232 23.4997C-0.205433 25.484 16.7158 26.3903 25.4778 24.445ZM17.5595 21.9372C15.7979 18.6013 9.85459 15.6717 17.5595 10.5467C27.1708 4.15619 22.2419 0 22.2419 0C24.2353 6.60147 15.2323 8.60145 11.9779 12.703C9.76187 15.5076 13.0627 18.5154 17.5595 21.9372ZM28.1851 8.17177C28.1944 8.17177 11.9408 11.5936 19.7014 19.1247C21.9915 21.3435 19.0987 23.3434 19.0987 23.3434C19.0987 23.3434 24.9122 20.8122 22.2419 17.6482C19.7477 14.6951 17.8377 13.2264 28.1851 8.17177ZM27.6196 29.3043C27.5689 29.3787 27.5065 29.4471 27.4341 29.5074C39.33 26.8746 34.9536 20.2185 29.27 21.906C28.963 22.001 28.6977 22.1727 28.5097 22.3981C28.8416 22.2969 29.1826 22.2185 29.5296 22.1638C32.4039 21.656 36.5299 25.4059 27.6196 29.3043ZM31.9922 34.1714C31.9922 34.1714 33.3366 35.1011 30.518 35.8277C25.1495 37.1948 8.19121 37.6089 3.48108 35.8823C1.78432 35.2652 4.96458 34.398 5.96595 34.2183C7.0044 34.0308 7.60708 34.062 7.60708 34.062C5.72488 32.9449 -4.56694 36.2573 2.37772 37.2026C21.3147 39.7963 36.9063 36.0386 31.9922 34.1714ZM11.2639 30.9371C3.96693 32.6558 15.7052 36.2026 24.9956 32.8511C24.0895 32.5545 23.2149 32.1939 22.3809 31.773C18.2364 32.4371 16.3171 32.4839 12.5527 32.1246C9.44662 31.8277 11.2639 30.9371 11.2639 30.9371ZM27.9348 38.5307C20.6378 39.687 11.6348 39.5542 6.30345 38.812C6.30345 38.8042 7.39753 39.5698 13.0163 39.8745C21.565 40.3354 34.694 39.6167 35 36.2105C35 36.2105 34.4066 37.4995 27.9348 38.5307ZM23.8923 27.5778C18.4033 28.4684 15.223 28.4449 11.2083 28.0934C8.1022 27.8199 10.1327 26.5543 10.1327 26.5543C2.08473 28.8043 14.6018 31.3511 25.8486 28.5777C25.1217 28.3615 24.4557 28.021 23.8923 27.5778Z" fill="#C9151B"/>
</svg>
